#!OML:ASF G:\JayActor3\Patient Classification 1\Patient 1\Session 5\male.ASF
:FULLY-SPECIFIED
:DEGREES
719
root 0.765453 16.9451 17.9795 -1.18203 -149.858 5.11681
lowerback 1.1284 -1.18407 2.9474
upperback 0.476151 -1.55567 0.210693
thorax -0.216812 -0.779315 -1.41404
lowerneck 1.63109 -2.80017 -1.38272
upperneck 3.19719 -4.05635 6.20696
head 0.887642 -2.06121 2.16784
rclavicle -1.38155e-014 0
rhumerus -34.6349 -17.0366 -82.4795
rradius 15.4034
rwrist 22.1579
rhand -17.7969 -5.15835
rfingers 7.12502
rthumb 8.46638 -34.9686
lclavicle -1.38155e-014 0
lhumerus -43.8141 42.0738 58.9741
lradius 8.89087
lwrist -16.4674
lhand -23.3542 14.1103
lfingers 7.12502
lthumb 3.10106 44.0675
rfemur -10.6431 10.5718 28.7006
rtibia 34.1872
rfoot -24.9885 -15.4755
rtoes 6.44692
lfemur -2.84196 2.81701 -16.5912
ltibia 22.7686
lfoot -20.1508 9.05579
ltoes 0.486937
720
root 0.762079 16.9435 17.9745 -1.18427 -149.78 5.11218
lowerback 1.23242 -1.19154 2.96268
upperback 0.443427 -1.56111 0.216623
thorax -0.309116 -0.783632 -1.4136
lowerneck 1.64547 -2.8101 -1.38058
upperneck 3.20882 -4.06977 6.191
head 0.888933 -2.06803 2.1623
rclavicle 1.16289e-014 -1.11319e-014
rhumerus -34.6802 -17.0052 -82.4777
rradius 15.385
rwrist 22.1012
rhand -17.7729 -5.15101
rfingers 7.12502
rthumb 8.48947 -34.9604
lclavicle 1.16289e-014 -1.11319e-014
lhumerus -43.5718 41.7175 59.3871
lradius 8.94275
lwrist -16.1076
lhand -23.3089 14.1386
lfingers 7.12502
lthumb 3.14483 44.0952
rfemur -10.5993 10.5045 28.6971
rtibia 34.1692
rfoot -25.0467 -15.5036
rtoes 6.37468
lfemur -2.79492 2.73121 -16.6038
ltibia 22.7284
lfoot -20.2228 9.03027
ltoes 0.675594
721
root 0.757603 16.9415 17.9689 -1.17529 -149.715 5.08665
lowerback 1.28036 -1.19411 2.97074
upperback 0.444961 -1.56283 0.211098
thorax -0.334849 -0.784854 -1.42266
lowerneck 1.62884 -2.82546 -1.37614
upperneck 3.2214 -4.09024 6.17718
head 0.896129 -2.07764 2.15653
rclavicle 2.49475e-014 1.59028e-015
rhumerus -34.6721 -16.9608 -82.514
rradius 15.3658
rwrist 22.0039
rhand -17.7669 -5.17777
rfingers 7.12502
rthumb 8.49528 -34.9869
lclavicle 2.49475e-014 1.59028e-015
lhumerus -43.269 41.3863 59.8309
lradius 8.98839
lwrist -15.7241
lhand -23.2579 14.1729
lfingers 7.12502
lthumb 3.19407 44.1288
rfemur -10.5577 10.4357 28.671
rtibia 34.1645
rfoot -25.1213 -15.5112
rtoes 6.32888
lfemur -2.73614 2.69143 -16.6337
ltibia 22.6774
lfoot -20.2806 8.9949
ltoes 0.764198
722
root 0.75285 16.9394 17.963 -1.15826 -149.665 5.07266
lowerback 1.26978 -1.19418 2.9878
upperback 0.474514 -1.56393 0.207162
thorax -0.299233 -0.78471 -1.43687
lowerneck 1.58626 -2.8445 -1.37169
upperneck 3.22785 -4.11491 6.16592
head 0.906078 -2.08877 2.15119
rclavicle -1.99282e-014 1.15295e-014
rhumerus -34.615 -16.9381 -82.5545
rradius 15.3352
rwrist 21.9554
rhand -17.738 -5.21769
rfingers 7.12502
rthumb 8.52315 -35.0257
lclavicle -1.99282e-014 1.15295e-014
lhumerus -42.9163 41.083 60.2948
lradius 9.0272
lwrist -15.3085
lhand -23.2107 14.2019
lfingers 7.12502
lthumb 3.23966 44.157
rfemur -10.5352 10.3809 28.6545
rtibia 34.1687
rfoot -25.2003 -15.5164
rtoes 6.29637
lfemur -2.69067 2.68685 -16.6472
ltibia 22.6267
lfoot -20.3381 8.94394
ltoes 0.815072
723
root 0.748056 16.9374 17.9568 -1.13116 -149.626 5.06783
lowerback 1.2122 -1.19301 3.00814
upperback 0.523864 -1.56558 0.205579
thorax -0.217036 -0.78403 -1.45184
lowerneck 1.52989 -2.86395 -1.36972
upperneck 3.22483 -4.13946 6.15982
head 0.915599 -2.09961 2.14781
rclavicle -9.96408e-015 8.34896e-015
rhumerus -34.5222 -16.9611 -82.5791
rradius 15.2868
rwrist 22.0039
rhand -17.6797 -5.22372
rfingers 7.12502
rthumb 8.57941 -35.0294
lclavicle -9.96408e-015 8.34896e-015
lhumerus -42.5303 40.802 60.7694
lradius 9.06224
lwrist -14.8573
lhand -23.1736 14.2346
lfingers 7.12502
lthumb 3.27545 44.1892
rfemur -10.5339 10.3408 28.6457
rtibia 34.1813
rfoot -25.2888 -15.5218
rtoes 6.28479
lfemur -2.66431 2.71464 -16.6471
ltibia 22.5826
lfoot -20.3942 8.87899
ltoes 0.84057
